<?xml version="1.0" encoding="UTF-8"?><svg id="a" xmlns="http://www.w3.org/2000/svg" viewBox="0 0 565.56 150"><defs><style>.b{fill:#091821;}</style></defs><path class="b" d="M2.81,58.95V.78H25.75c18.23,0,30.87,11.6,30.87,29.13s-12.65,29.04-30.87,29.04H2.81ZM43.98,29.91c0-10.29-6.28-18.23-18.23-18.23H15.2V48.05h10.55c11.51,0,18.23-8.28,18.23-18.14Z"/><path class="b" d="M111.3,58.95l-3.58-9.85h-24.94l-3.66,9.85h-14.13L87.49,.78h15.52l22.41,58.17h-14.13ZM95.25,13.16l-9.07,25.03h18.14l-9.07-25.03Z"/><path class="b" d="M190.14,58.95V18.22l-16.4,40.73h-5.41l-16.4-40.73V58.95h-12.38V.78h17.35l14.13,35.15L185.17,.78h17.44V58.95h-12.47Z"/><path class="b" d="M222.84,58.95V.78h12.38V58.95h-12.38Z"/><path class="b" d="M295.57,58.95l-3.58-9.85h-24.94l-3.66,9.85h-14.13L271.76,.78h15.52l22.41,58.17h-14.13Zm-16.05-45.78l-9.07,25.03h18.14l-9.07-25.03Z"/><path class="b" d="M363.94,58.95l-27.73-37.94V58.95h-12.38V.78h12.73l26.95,36.54V.78h12.38V58.95h-11.95Z"/><path class="b" d="M35.69,149.64l-11.42-20.67H15.2v20.67H2.81v-58.17H30.02c12.12,0,19.53,7.94,19.53,18.75s-6.45,15.78-12.73,17.27l13.08,22.15h-14.22Zm1.22-39.42c0-4.88-3.75-7.85-8.72-7.85H15.2v15.7h12.99c4.97,0,8.72-2.97,8.72-7.85Z"/><path class="b" d="M64.82,120.6c0-17.53,12.82-30.09,30.35-30.09s30.44,12.56,30.44,30.09-12.82,30.09-30.44,30.09-30.35-12.56-30.35-30.09Zm48.05,0c0-10.9-6.98-19.1-17.7-19.1s-17.62,8.2-17.62,19.1,6.89,19.1,17.62,19.1,17.7-8.28,17.7-19.1Z"/><path class="b" d="M143.05,149.64v-58.17h22.94c18.23,0,30.87,11.6,30.87,29.13s-12.65,29.04-30.87,29.04h-22.94Zm41.16-29.04c0-10.29-6.28-18.23-18.23-18.23h-10.55v36.37h10.55c11.51,0,18.23-8.28,18.23-18.14Z"/><path class="b" d="M247.26,149.64l-11.42-20.67h-9.07v20.67h-12.38v-58.17h27.21c12.12,0,19.53,7.94,19.53,18.75s-6.45,15.78-12.73,17.27l13.08,22.15h-14.22Zm1.22-39.42c0-4.88-3.75-7.85-8.72-7.85h-12.99v15.7h12.99c4.97,0,8.72-2.97,8.72-7.85Z"/><path class="b" d="M279.18,149.64v-58.17h12.38v58.17h-12.38Z"/><path class="b" d="M309,120.6c0-18.4,13.95-30.09,30.96-30.09,12.12,0,19.71,6.1,24.07,12.99l-10.29,5.58c-2.62-4.1-7.59-7.59-13.78-7.59-10.55,0-18.23,8.11-18.23,19.1s7.67,19.1,18.23,19.1c5.15,0,10.03-2.27,12.38-4.45v-6.98h-15.35v-10.81h27.73v22.33c-5.93,6.63-14.22,10.99-24.77,10.99-17.01,0-30.96-11.86-30.96-30.17Z"/><path class="b" d="M383.3,126.45v-34.97h12.56v34.53c0,8.11,4.71,13.69,13.69,13.69s13.6-5.58,13.6-13.69v-34.53h12.65v34.88c0,14.48-8.55,24.33-26.25,24.33s-26.25-9.94-26.25-24.24Z"/><path class="b" d="M455.95,149.64v-58.17h41.16v10.9h-28.78v12.3h28.17v10.9h-28.17v13.17h28.78v10.9h-41.16Z"/><path class="b" d="M513.42,149.64v-10.03l27.47-37.24h-27.47v-10.9h43.69v9.94l-27.47,37.33h28.08v10.9h-44.3Z"/></svg>